<?xml version="1.0" encoding="UTF-8" ?>
<!DOCTYPE svg PUBLIC "-//W3C//DTD SVG 1.1//EN" "http://www.w3.org/Graphics/SVG/1.1/DTD/svg11.dtd">
<svg width="626pt" height="496pt" viewBox="0 0 626 496" version="1.1" xmlns="http://www.w3.org/2000/svg">
<path fill="#ffffff" d=" M 175.42 0.00 L 626.00 0.00 L 626.00 0.54 C 622.50 6.50 620.05 12.96 616.99 19.13 C 572.22 116.34 527.07 213.38 482.42 310.64 C 472.92 310.68 463.42 310.66 453.92 310.64 C 452.68 310.80 450.48 310.21 450.21 311.99 C 447.33 322.95 443.48 334.14 435.54 342.54 C 430.93 347.75 425.11 351.95 418.54 354.33 C 405.86 359.35 391.35 357.52 379.21 351.85 C 370.65 347.37 363.63 339.97 359.59 331.19 C 353.40 318.42 350.84 304.16 350.54 290.05 C 350.20 276.74 350.45 263.12 354.57 250.34 C 357.26 240.34 361.80 230.55 368.95 222.94 C 376.43 214.83 387.06 209.82 398.04 208.96 C 410.72 207.83 424.53 210.00 434.45 218.53 C 443.96 226.38 448.11 238.68 450.34 250.41 C 460.88 250.39 471.42 250.50 481.96 250.36 C 481.79 241.97 479.33 233.94 477.05 225.95 C 472.62 213.66 465.68 201.91 455.23 193.80 C 442.11 183.07 424.71 178.70 408.00 179.17 C 385.77 178.91 362.70 185.79 346.38 201.38 C 332.36 214.18 323.83 231.89 319.30 250.09 C 316.62 262.56 314.76 275.26 314.79 288.03 C 315.54 295.38 315.27 302.85 317.14 310.06 C 320.79 335.54 334.63 360.48 357.22 373.72 C 360.46 375.34 363.67 377.03 366.66 379.09 C 351.11 379.38 335.55 379.15 320.00 379.23 C 294.35 379.11 268.69 379.45 243.05 379.06 C 247.41 376.03 252.28 373.79 256.40 370.42 C 271.65 359.06 281.21 341.67 286.87 323.84 C 290.74 312.96 291.95 301.38 293.51 290.00 C 293.90 278.19 294.43 266.24 292.17 254.57 C 289.26 233.87 280.41 213.43 265.07 198.94 C 245.73 180.41 215.98 174.54 190.68 182.58 C 176.13 186.98 164.52 197.63 155.59 209.57 C 155.28 176.92 155.66 144.27 155.40 111.62 C 144.90 111.56 134.39 111.66 123.89 111.56 C 126.43 105.05 129.81 98.93 132.45 92.47 C 146.93 61.72 160.81 30.69 175.42 0.00 Z" />
<path fill="#ffffff" d=" M 13.61 349.72 C 49.80 271.52 85.88 193.28 122.10 115.09 C 122.69 122.38 122.27 129.70 122.39 137.00 C 122.36 217.74 122.45 298.48 122.35 379.21 C 81.56 379.25 40.78 379.19 0.00 379.25 L 0.00 378.63 C 5.00 369.22 8.99 359.32 13.61 349.72 Z" />
<path fill="#ffffff" d=" M 198.31 209.22 C 211.55 207.66 225.78 209.34 236.98 217.05 C 245.11 222.79 251.25 231.36 253.99 240.93 C 259.75 255.44 259.84 271.39 259.54 286.77 C 259.40 304.75 255.27 323.06 245.30 338.19 C 240.15 344.74 233.79 350.73 225.85 353.66 C 204.33 362.75 177.24 353.81 164.74 334.24 C 156.46 321.15 153.67 305.30 153.86 290.01 C 154.09 279.78 154.30 269.47 156.56 259.44 C 158.84 246.62 162.75 233.43 171.52 223.48 C 178.30 215.65 188.02 210.42 198.31 209.22 Z" />
<path fill="#ffffff" d=" M 153.67 355.54 C 158.67 362.35 163.70 369.38 170.74 374.27 C 173.08 375.73 175.41 377.23 177.43 379.14 C 169.47 379.24 161.50 379.33 153.54 379.08 C 153.57 371.24 153.36 363.38 153.67 355.54 Z" />
<path fill="#ffffff" d=" M 450.24 371.25 C 452.14 369.61 454.13 368.09 456.27 366.78 C 454.56 370.85 452.65 374.86 450.63 378.79 C 446.55 379.76 442.17 379.09 437.98 379.06 C 441.68 375.85 446.56 374.47 450.24 371.25 Z" />
<path fill="#ffffff" d=" M 0.00 397.44 C 3.14 397.45 6.29 397.44 9.43 397.48 C 9.50 406.60 9.25 415.73 9.60 424.84 C 11.93 422.74 14.10 420.37 16.88 418.85 C 22.84 416.00 29.97 416.36 35.93 418.99 C 42.79 422.60 46.91 429.87 48.39 437.28 C 49.95 447.53 48.44 458.71 42.24 467.25 C 34.49 477.72 16.58 478.49 8.76 467.66 C 8.70 469.76 8.67 471.86 8.65 473.97 C 5.76 474.01 2.88 473.92 0.00 473.98 L 0.00 397.44 Z" />
<path fill="#ffffff" d=" M 199.46 425.58 C 200.33 416.20 198.80 406.68 200.35 397.39 C 203.28 397.45 206.21 397.44 209.15 397.46 C 209.18 422.97 209.14 448.47 209.17 473.98 C 206.26 473.97 203.35 473.94 200.45 473.95 C 200.40 471.49 200.46 469.02 200.30 466.57 C 197.79 469.25 195.66 472.56 192.10 473.95 C 182.55 477.94 170.08 474.23 164.89 465.09 C 160.04 456.21 158.19 445.56 160.66 435.68 C 162.10 430.47 164.46 425.21 168.84 421.82 C 173.98 416.81 181.90 416.16 188.60 417.67 C 193.24 418.52 196.33 422.41 199.46 425.58 Z" />
<path fill="#ffffff" d=" M 67.00 418.09 C 75.93 416.43 86.53 415.77 93.91 422.05 C 99.74 427.40 98.13 435.94 98.35 443.00 C 98.68 451.00 97.64 459.12 98.95 467.05 C 100.71 467.64 102.59 467.53 104.42 467.61 C 104.41 469.83 104.41 472.05 104.40 474.27 C 100.12 474.72 94.93 475.70 91.46 472.47 C 90.15 470.92 89.86 468.79 89.08 466.97 C 83.29 473.67 74.04 476.24 65.44 475.33 C 60.97 474.28 56.08 472.32 54.01 467.89 C 49.12 459.80 52.52 447.07 61.89 443.99 C 70.00 440.85 78.97 441.58 87.22 439.24 C 89.23 436.54 89.04 432.83 88.14 429.75 C 86.84 426.90 83.75 425.52 80.88 424.83 C 76.43 424.17 71.39 423.90 67.53 426.61 C 64.82 428.67 64.09 432.15 62.65 435.06 C 59.94 435.34 57.21 435.17 54.50 435.16 C 54.27 427.47 59.38 419.90 67.00 418.09 Z" />
<path fill="#ffffff" d=" M 128.17 417.94 C 133.74 416.46 139.81 416.66 145.18 418.78 C 150.60 421.78 154.21 427.69 154.12 433.95 C 154.39 447.28 154.16 460.62 154.24 473.96 C 151.05 473.99 147.86 474.01 144.69 473.80 C 144.74 461.52 144.81 449.25 144.65 436.98 C 144.47 432.64 142.84 427.37 138.34 425.77 C 134.02 425.04 128.98 424.50 125.33 427.44 C 120.86 429.90 119.21 435.26 118.37 439.96 C 118.12 451.24 118.28 462.54 118.28 473.83 C 115.19 473.98 112.09 474.00 108.99 474.03 C 108.99 455.43 108.94 436.83 109.02 418.23 C 111.85 418.23 114.69 418.24 117.53 418.23 C 117.53 420.60 117.54 422.96 117.62 425.33 C 121.07 422.79 123.93 419.23 128.17 417.94 Z" />
<path fill="#ffffff" d=" M 220.27 432.14 C 223.41 424.50 230.46 417.99 238.95 417.33 C 246.18 416.04 254.80 417.11 259.65 423.22 C 263.24 426.79 264.30 431.86 264.84 436.71 C 261.97 436.74 259.10 436.76 256.24 436.69 C 254.97 432.76 253.24 428.42 249.25 426.55 C 243.58 423.84 236.06 424.93 232.00 429.98 C 227.45 437.05 226.63 445.77 227.99 453.93 C 228.98 457.78 230.31 461.86 233.43 464.54 C 237.29 467.76 242.95 468.26 247.57 466.52 C 252.35 464.42 254.79 459.32 256.11 454.55 C 258.69 454.68 261.28 454.76 263.87 454.86 C 263.93 456.02 264.00 457.19 264.08 458.36 C 263.52 463.55 260.20 467.99 256.44 471.40 C 250.17 475.71 241.91 476.45 234.70 474.37 C 227.88 472.81 222.66 467.22 219.93 460.98 C 216.54 451.73 216.95 441.35 220.27 432.14 Z" />
<path fill="#ffffff" d=" M 276.41 420.37 C 280.93 417.07 286.77 417.54 292.03 416.79 C 297.79 417.27 304.39 417.92 308.56 422.43 C 310.91 424.46 312.22 427.46 312.54 430.51 C 313.31 442.73 311.92 455.05 313.28 467.23 C 315.14 467.43 317.01 467.54 318.88 467.57 C 318.68 469.83 318.91 472.10 318.68 474.37 C 314.56 474.62 309.62 475.70 306.22 472.72 C 304.79 471.16 304.21 469.03 303.27 467.18 C 297.40 473.74 288.17 476.42 279.61 475.19 C 273.65 474.31 268.30 470.03 266.80 464.09 C 266.64 461.05 266.74 457.99 267.09 454.97 C 267.81 451.13 269.66 447.10 273.38 445.37 C 282.00 440.79 292.12 441.46 301.47 439.62 C 304.56 435.38 303.88 428.63 299.02 426.07 C 293.58 423.92 286.79 423.41 281.69 426.71 C 279.20 428.87 278.34 432.23 277.21 435.21 C 274.42 435.20 271.64 435.19 268.85 435.15 C 268.95 429.43 271.40 423.47 276.41 420.37 Z" />
<path fill="#ffffff" d=" M 341.96 418.06 C 346.58 416.78 351.55 416.57 356.16 418.04 C 359.67 419.46 362.11 422.48 364.05 425.62 C 367.37 422.76 370.14 418.81 374.65 417.76 C 380.95 416.19 388.71 416.52 393.43 421.56 C 396.94 425.02 397.96 430.19 398.27 434.93 C 398.35 447.92 398.25 460.90 398.32 473.88 C 395.26 473.96 392.21 473.99 389.16 473.97 C 389.14 465.31 389.15 456.66 389.15 448.00 C 389.12 442.69 389.41 437.33 388.36 432.10 C 387.25 428.24 383.67 424.90 379.47 425.20 C 375.28 424.35 371.66 427.15 368.96 430.00 C 366.61 433.54 365.32 437.75 365.32 442.01 C 365.32 452.64 365.28 463.28 365.35 473.91 C 362.31 473.96 359.27 473.98 356.23 473.96 C 356.22 461.29 356.27 448.62 356.22 435.96 C 356.20 432.19 355.19 428.00 351.67 426.00 C 347.50 424.49 342.40 425.00 339.00 428.03 C 334.81 430.89 333.35 436.17 332.67 440.92 C 332.48 451.93 332.65 462.95 332.58 473.97 C 329.51 473.96 326.44 473.96 323.37 473.97 C 323.36 455.39 323.35 436.81 323.38 418.24 C 326.11 418.24 328.85 418.24 331.60 418.19 C 331.75 420.62 332.14 423.03 332.61 425.43 C 335.36 422.57 338.15 419.48 341.96 418.06 Z" />
<path fill="#ffffff" d=" M 424.30 418.20 C 430.00 416.37 436.38 416.47 441.88 418.93 C 449.10 422.64 453.24 430.34 454.54 438.12 C 455.74 447.92 454.43 458.48 448.71 466.76 C 441.44 477.18 423.75 478.84 415.63 468.58 C 415.17 477.71 415.51 486.86 415.41 496.00 L 406.11 496.00 C 406.13 470.08 406.09 444.16 406.14 418.25 C 408.91 418.24 411.69 418.23 414.47 418.21 C 414.69 420.60 415.07 422.98 415.48 425.35 C 418.05 422.58 420.65 419.55 424.30 418.20 Z" />
<path fill="#0E1726" d=" M 23.33 425.16 C 28.73 424.55 34.33 427.33 36.79 432.21 C 39.27 438.47 39.77 445.41 38.64 452.02 C 38.40 457.54 35.64 462.98 30.93 465.98 C 26.85 468.16 21.92 467.76 17.71 466.19 C 12.96 463.44 9.84 458.49 9.41 453.03 C 9.08 447.22 8.97 441.27 10.87 435.69 C 11.82 429.80 17.35 425.05 23.33 425.16 Z" />
<path fill="#0E1726" d=" M 183.33 425.18 C 189.07 424.32 194.79 427.90 197.00 433.14 C 199.89 441.77 201.24 451.69 197.10 460.15 C 193.58 467.15 183.91 469.53 177.24 465.75 C 173.40 463.00 170.81 458.60 170.22 453.91 C 169.15 446.36 168.89 438.24 172.32 431.22 C 174.80 427.68 178.92 425.13 183.33 425.18 Z" />
<path fill="#0E1726" d=" M 429.33 425.16 C 434.70 424.56 440.24 427.22 442.77 432.07 C 446.04 439.16 445.58 447.27 444.39 454.79 C 443.66 459.14 441.06 463.06 437.50 465.61 C 433.63 468.17 428.65 467.78 424.41 466.45 C 418.25 463.60 414.99 456.59 415.27 449.99 C 414.97 444.63 415.66 439.31 417.37 434.22 C 418.69 428.96 423.96 425.13 429.33 425.16 Z" />
<path fill="#0E1726" d=" M 65.44 451.49 C 72.74 448.09 81.11 448.52 88.63 445.81 C 88.45 450.36 89.43 455.22 87.59 459.53 C 83.50 466.15 74.86 468.91 67.46 467.30 C 60.66 465.65 58.82 454.58 65.44 451.49 Z" />
<path fill="#0E1726" d=" M 279.64 451.63 C 287.02 447.96 295.69 448.67 303.33 445.72 C 303.39 450.46 303.95 455.47 301.80 459.88 C 297.51 466.34 289.01 468.92 281.63 467.25 C 275.02 465.47 273.33 454.87 279.64 451.63 Z" />
<path fill="#808080" d=" M 256.11 454.55 C 259.76 454.10 263.50 453.98 267.09 454.97 C 266.74 457.99 266.64 461.05 266.80 464.09 C 265.94 462.16 265.03 460.25 264.08 458.36 C 264.00 457.19 263.93 456.02 263.87 454.86 C 261.28 454.76 258.69 454.68 256.11 454.55 Z" />
</svg>
