<svg xmlns="http://www.w3.org/2000/svg" width="78.94" height="45" viewBox="0 0 92.985 53.006"><path fill="#fff" d="M1.053 24.152c-.194 0-.348.15-.373.364L0 29.68l.68 5.077c.025.214.18.363.373.363.188 0 .34-.148.37-.36v-.002l.807-5.077-.806-5.16c-.03-.21-.184-.36-.37-.36zm3.824-2.822c-.032-.222-.19-.375-.387-.375s-.36.158-.387.375l-.914 8.35.91 8.167c.02.22.19.377.38.377s.35-.154.38-.375l1.04-8.17-1.04-8.35zm14.404-7.703c-.37 0-.68.307-.7.697l-.73 15.364.73 9.93c.02.387.33.693.71.693.38 0 .69-.3.71-.69v.01l.83-9.93L20 14.34c-.02-.39-.33-.697-.703-.697zm-7.45 5.34c-.29 0-.52.23-.54.537l-.82 10.18.82 9.85c.03.304.26.534.55.534.29 0 .52-.23.55-.535l.94-9.85-.93-10.18c-.02-.306-.26-.536-.54-.536zM26.86 40.31c.465 0 .843-.375.862-.855l.714-9.762-.713-20.455c-.02-.48-.396-.855-.86-.855-.47 0-.85.376-.864.856l-.64 20.45.63 9.76c.01.47.39.85.86.85zm15.51.046c.64 0 1.17-.527 1.18-1.175v.01l.5-9.48-.5-23.62c-.01-.64-.54-1.17-1.18-1.17-.64 0-1.17.53-1.18 1.18l-.445 23.61.445 9.5c.01.65.54 1.17 1.18 1.17zm-7.814-.037c.557 0 1.006-.45 1.02-1.02l.607-9.62-.606-20.61c-.015-.57-.464-1.02-1.02-1.02-.562 0-1.01.45-1.023 1.02l-.54 20.6.54 9.61c.014.56.463 1.01 1.024 1.01zm-19.014-.09c.33 0 .6-.27.624-.62l.878-9.93-.876-9.45c-.024-.35-.292-.61-.624-.61-.337 0-.605.26-.626.61l-.773 9.44.775 9.93c.022.35.29.61.625.61zm-7.396-.55c.242 0 .438-.19.466-.46l.984-9.55-.985-9.91c-.03-.27-.22-.46-.47-.46-.24 0-.44.19-.46.45l-.87 9.91.87 9.54c.03.263.22.455.47.455zm30.3-30.94c-.604 0-1.09.48-1.1 1.09l-.493 19.85.495 9.55c.012.6.496 1.08 1.102 1.08.604 0 1.086-.48 1.1-1.1v.01l.552-9.55-.552-19.85c-.015-.616-.497-1.097-1.1-1.097zm-15.39 31.58c.42 0 .764-.34.784-.78l.768-9.87-.768-18.87c-.02-.44-.365-.78-.783-.78-.422 0-.766.34-.784.77l-.68 18.88.684 9.87c.017.43.36.77.783.77zm8.577-.93v-.01l.66-9.7-.66-21.15c-.013-.53-.43-.94-.94-.94-.512 0-.926.41-.94.93l-.586 21.14.587 9.7c.014.52.428.93.94.93.513 0 .925-.41.94-.93v.003zm49.92-21.89c-1.566 0-3.06.31-4.423.89C76.217 8.08 67.57 0 57.027 0c-2.58 0-5.095.508-7.316 1.367-.86.334-1.09.678-1.1 1.345v36.3c.01.7.56 1.283 1.24 1.352.03.003 31.5.02 31.71.02 6.32 0 11.44-5.122 11.44-11.44s-5.12-11.438-11.43-11.438zM46.27 2.68c-.687 0-1.25.564-1.26 1.257l-.517 25.765.517 9.35c.01.684.573 1.247 1.26 1.247.685 0 1.25-.57 1.26-1.26v.01l.56-9.35-.56-25.77c-.01-.69-.575-1.26-1.26-1.26zM9.236 47.654c-1.353-.318-1.72-.488-1.72-1.024 0-.378.306-.77 1.22-.77.78 0 1.39.318 1.94.88l1.23-1.195c-.805-.84-1.78-1.34-3.108-1.34-1.684 0-3.05.95-3.05 2.5 0 1.68 1.1 2.18 2.67 2.546 1.61.37 1.903.61 1.903 1.16 0 .65-.47.93-1.48.93-.81 0-1.58-.28-2.18-.97l-1.23 1.1c.65.95 1.89 1.55 3.32 1.55 2.33 0 3.36-1.09 3.36-2.72 0-1.85-1.5-2.31-2.85-2.63zm7.854-3.45c-2.328 0-3.705 1.804-3.705 4.4s1.377 4.4 3.705 4.4 3.707-1.802 3.707-4.4-1.38-4.4-3.707-4.4zm0 7.108c-1.377 0-1.95-1.183-1.95-2.706 0-1.524.573-2.707 1.95-2.707 1.38 0 1.95 1.18 1.95 2.7s-.57 2.7-1.95 2.7zm10.596-2.182c0 1.365-.672 2.207-1.756 2.207-1.085 0-1.743-.866-1.743-2.23v-4.77H22.48v4.793c0 2.486 1.39 3.876 3.45 3.876 2.17 0 3.463-1.427 3.463-3.9v-4.77h-1.707v4.794zm9.07-1.183c0 .476.024 1.548.024 1.865-.11-.22-.39-.646-.597-.964l-3.025-4.512h-1.633v8.536h1.683v-3.756c0-.476-.024-1.548-.024-1.865.11.22.39.65.597.97l3.14 4.66h1.53v-8.54h-1.69v3.61zm6.547-3.61h-2.67v8.536h2.547c2.195 0 4.366-1.27 4.366-4.268 0-3.122-1.805-4.268-4.243-4.268zm-.123 6.878h-.84v-5.22h.902c1.805 0 2.55.866 2.55 2.61 0 1.56-.82 2.61-2.612 2.61zm9.645-5.317c.768 0 1.256.342 1.56.927l1.586-.73c-.53-1.11-1.51-1.89-3.12-1.89-2.23 0-3.79 1.803-3.79 4.4 0 2.694 1.5 4.4 3.73 4.4 1.55 0 2.58-.72 3.16-1.926l-1.44-.86c-.45.75-.9 1.08-1.67 1.08-1.28 0-2.02-1.17-2.02-2.71 0-1.59.74-2.71 2.01-2.71zm6.33-1.56H57.45v8.535h5.13V51.19h-3.424v-6.853zm7.92-.134c-2.33 0-3.706 1.804-3.706 4.4s1.37 4.4 3.7 4.4 3.7-1.802 3.7-4.4-1.38-4.4-3.71-4.4zm0 7.108c-1.378 0-1.95-1.183-1.95-2.706 0-1.524.572-2.707 1.95-2.707 1.377 0 1.95 1.18 1.95 2.7s-.573 2.7-1.95 2.7zM77.67 49.13c0 1.365-.67 2.207-1.754 2.207-1.087 0-1.744-.866-1.744-2.23v-4.77h-1.707v4.793c0 2.486 1.39 3.876 3.45 3.876 2.17 0 3.463-1.427 3.463-3.9v-4.77H77.67v4.794zm6.51-4.793h-2.668v8.536h2.547c2.19 0 4.36-1.27 4.36-4.268 0-3.122-1.81-4.268-4.25-4.268zm-.12 6.878h-.842v-5.22h.903c1.81 0 2.55.866 2.55 2.61 0 1.56-.81 2.61-2.61 2.61z"/></svg>