<svg xmlns="http://www.w3.org/2000/svg" width="107" height="45" viewBox="0 0 502 210.649"><path fill="#fff" d="M498.333 45.7s-2.91-20.443-11.846-29.447C475.157 4.44 462.452 4.38 456.627 3.687c-41.7-3-104.25-3-104.25-3h-.13s-62.555 0-104.255 3c-5.826.693-18.523.753-29.86 12.566-8.933 9.004-11.84 29.447-11.84 29.447s-2.983 24.003-2.983 48.01v22.506c0 24.006 2.98 48.013 2.98 48.013s2.906 20.44 11.84 29.442c11.336 11.817 26.23 11.44 32.86 12.677 23.84 2.28 101.314 2.983 101.314 2.983s62.62-.094 104.32-3.093c5.824-.692 18.527-.75 29.857-12.565 8.937-9.006 11.847-29.446 11.847-29.446s2.98-24.01 2.98-48.016V93.71c0-24.007-2.98-48.01-2.98-48.01M187.934 169.537h-18.96V158.56c-7.19 8.24-13.284 12.4-19.927 12.4-5.826 0-9.876-2.747-11.9-7.717-1.23-3.02-2.103-7.736-2.103-14.663V68.744H154v81.833c.444 2.796 1.637 3.823 4.044 3.823 3.63 0 6.913-3.153 10.93-8.817v-76.84h18.96v100.794zm-85.824-29.94c.995 9.98-2.1 14.93-7.988 14.93s-8.98-4.95-7.98-14.93v-39.92c-1-9.98 2.093-14.657 7.98-14.657 5.89 0 8.993 4.677 7.996 14.657l-.01 39.92zm18.958-37.923c0-10.77-2.163-18.86-5.986-23.95-5.054-6.897-12.973-9.72-20.96-9.72-9.033 0-15.913 2.823-20.957 9.72-3.886 5.09-5.97 13.266-5.97 24.036l-.016 35.84c0 10.71 1.85 18.11 5.732 23.153 5.047 6.873 13.227 10.513 21.207 10.513 7.986 0 16.306-3.64 21.36-10.513 3.823-5.043 5.586-12.443 5.586-23.153v-35.926zm-74.845 12.973v54.89h-19.96v-54.89s-20.68-67.29-24.95-79.833H22.27L36.277 87.38l13.936-52.566H71.17l-24.947 79.833z"/><g fill="#0E1726"><path d="M440.413 96.647c0-9.33 2.557-11.874 8.59-11.874 5.99 0 8.374 2.777 8.374 11.997v10.893l-16.964.02V96.647zm35.96 25.986l-.003-20.4c0-10.656-2.1-18.456-5.88-23.5-5.06-6.823-12.253-10.436-21.317-10.436-9.226 0-16.42 3.613-21.643 10.436-3.84 5.044-6.076 13.28-6.076 23.943v34.927c0 10.596 2.46 18.013 6.296 23.003 5.227 6.813 12.42 10.216 21.87 10.216 9.44 0 16.853-3.566 21.85-10.81 2.2-3.196 3.616-6.82 4.226-10.823.164-1.81.64-5.937.64-11.757v-2.827h-18.96c0 7.246.037 11.556-.133 12.54-1.033 4.833-3.623 7.25-8.07 7.25-6.203 0-8.826-4.637-8.76-13.844V122.63h35.96zm-85.86 17.964c0 9.98-2.353 13.806-7.563 13.806-2.973 0-6.4-1.53-9.423-4.553l.02-60.523c3.02-2.98 6.43-4.55 9.403-4.55 5.21 0 7.563 2.93 7.563 12.91v42.91zm2.104-72.453c-6.647 0-13.253 4.087-19.09 11.27l.02-43.603h-17.963v133.73h17.963l.027-10.05c6.036 7.47 12.62 11.336 19.043 11.336 7.193 0 12.45-3.85 14.863-11.267 1.203-4.227 1.993-10.734 1.993-19.957V99.685c0-9.447-1.21-15.907-2.416-19.917-2.41-7.466-7.247-11.623-14.44-11.623m-52 101.393h-18.955V158.56c-7.193 8.24-13.283 12.4-19.926 12.4-5.827 0-9.877-2.747-11.9-7.717-1.234-3.02-2.107-7.736-2.107-14.663V69.744h18.96v80.833c.44 2.796 1.63 3.823 4.04 3.823 3.63 0 6.912-3.153 10.93-8.817v-75.84h18.956v99.794z"/><path d="M268.763 169.537h-19.956V54.77H227.85V35.836l62.87-.024v18.96h-21.957V169.54z"/></g></svg>